HIERARCHY
ROOT Hips
{
    OFFSET 0.000000 0.000000 0.000000
    CHANNELS 6 Xposition Yposition Zposition Zrotation Xrotation Yrotation
    JOINT Spine
    {
        OFFSET -0.000000 14.517291 0.000000
        CHANNELS 3 Zrotation Xrotation Yrotation
        JOINT Spine1
        {
            OFFSET -0.000000 37.558300 0.000000
            CHANNELS 3 Zrotation Xrotation Yrotation
            JOINT Neck
            {
                OFFSET -0.000000 37.404057 3.400369
                CHANNELS 3 Zrotation Xrotation Yrotation
                JOINT Head
                {
                    OFFSET -0.000000 24.785618 -3.540803
                    CHANNELS 3 Zrotation Xrotation Yrotation
                    End Site
                    {
                        OFFSET -0.000000 35.408028 0.000000
                    }
                }
            }
            JOINT LeftShoulder
            {
                OFFSET 6.992933 33.973492 -0.192664
                CHANNELS 3 Zrotation Xrotation Yrotation
                JOINT LeftArm
                {
                    OFFSET 21.527611 0.000000 0.000000
                    CHANNELS 3 Zrotation Xrotation Yrotation
                    JOINT LeftForeArm
                    {
                        OFFSET 56.353916 0.000000 0.000000
                        CHANNELS 3 Zrotation Xrotation Yrotation
                        JOINT LeftHand
                        {
                            OFFSET 47.774071 0.000000 0.000000
                            CHANNELS 3 Zrotation Xrotation Yrotation
                            End Site
                            {
                                OFFSET 26.556021 0.000000 0.000000
                            }
                        }
                    }
                }
            }
            JOINT RightShoulder
            {
                OFFSET -7.065357 33.973492 -0.192664
                CHANNELS 3 Zrotation Xrotation Yrotation
                JOINT RightArm
                {
                    OFFSET -21.527611 0.000000 0.000000
                    CHANNELS 3 Zrotation Xrotation Yrotation
                    JOINT RightForeArm
                    {
                        OFFSET -56.353916 0.000000 0.000000
                        CHANNELS 3 Zrotation Xrotation Yrotation
                        JOINT RightHand
                        {
                            OFFSET -47.774071 0.000000 0.000000
                            CHANNELS 3 Zrotation Xrotation Yrotation
                            End Site
                            {
                                OFFSET -26.556021 0.000000 0.000000
                            }
                        }
                    }
                }
            }
        }
    }
    JOINT LeftUpLeg
    {
        OFFSET 17.704014 0.000000 0.000000
        CHANNELS 3 Zrotation Xrotation Yrotation
        JOINT LeftLeg
        {
            OFFSET -0.000000 -81.181816 0.000000
            CHANNELS 3 Zrotation Xrotation Yrotation
            JOINT LeftFoot
            {
                OFFSET -0.000000 -62.821102 0.000000
                CHANNELS 3 Zrotation Xrotation Yrotation
                JOINT LeftToeBase
                {
                    OFFSET -0.000000 -11.507608 26.556021
                    CHANNELS 3 Zrotation Xrotation Yrotation
                    End Site
                    {
                        OFFSET -0.000000 0.000000 7.081605
                    }
                }
            }
        }
    }
    JOINT RightUpLeg
    {
        OFFSET -17.704014 0.000000 0.000000
        CHANNELS 3 Zrotation Xrotation Yrotation
        JOINT RightLeg
        {
            OFFSET -0.000000 -81.181816 0.000000
            CHANNELS 3 Zrotation Xrotation Yrotation
            JOINT RightFoot
            {
                OFFSET -0.000000 -62.821102 0.000000
                CHANNELS 3 Zrotation Xrotation Yrotation
                JOINT RightToeBase
                {
                    OFFSET -0.000000 -11.507608 26.556021
                    CHANNELS 3 Zrotation Xrotation Yrotation
                    End Site
                    {
                        OFFSET -0.000000 0.000000 7.081605
                    }
                }
            }
        }
    }
}
MOTION
Frames:    5
Frame Time:    0.008333
-8.733716    88.071320    -73.449600    -1.798857    -3.705749    47.870483    3.717529    14.002121    -4.935124    -3.567822    -3.773152    -1.601170    3.806991    6.359714    -19.283028    13.764201    -13.527647    -16.950157    1.020722    7.953553    -18.159769    -33.074593    18.166794    -38.340157    -6.098280    -26.956839    -119.587784    -13.166111    -34.582771    -14.036516    5.201228    6.923269    -4.770439    28.134100    10.695456    39.187389    -11.070768    4.268874    43.310669    -18.943611    2.509823    35.760666    59.283432    -44.881302    5.801963    -162.807175    51.507393    98.783806    4.867875    -39.258530    28.207563    0.000000    0.000000    0.000000    -69.136169    -37.171696    -50.919846    142.786255    56.743313    -110.547760    -12.507071    -32.091282    -24.134888    0.000000    0.000000    0.000000    
-8.748311    88.046089    -73.408165    -1.834548    -3.706520    47.907440    3.693818    13.955669    -4.947572    -3.560329    -3.750865    -1.605839    3.808116    6.353282    -19.311834    13.758996    -13.530471    -16.981718    1.012607    7.951989    -18.179438    -33.059669    18.156509    -38.271290    -6.134271    -26.952555    -119.562988    -13.277747    -34.601688    -14.169188    5.228303    6.913234    -4.783272    28.151213    10.710178    39.155174    -11.085297    4.310101    43.368877    -18.984404    2.548433    35.768929    59.378174    -44.916008    5.840562    -162.769302    51.471855    98.789703    4.839447    -39.251347    28.176657    0.000000    0.000000    0.000000    -69.129715    -37.140469    -50.968319    142.837708    56.725185    -110.574982    -12.532612    -32.123642    -24.143148    0.000000    0.000000    0.000000    
-8.775287    88.027115    -73.368797    -1.873613    -3.716760    47.932594    3.674392    13.926085    -4.950598    -3.557386    -3.740155    -1.607595    3.814533    6.385744    -19.334545    13.776964    -13.578744    -16.994806    1.028248    7.948548    -18.194649    -33.053844    18.156839    -38.209450    -6.187876    -26.954420    -119.572632    -13.643065    -34.631584    -14.293806    5.256673    6.921744    -4.798511    28.146370    10.752732    39.142647    -11.219831    4.371205    43.416725    -18.922615    2.648835    35.990143    59.495571    -44.942055    5.885182    -162.721939    51.451653    98.816742    4.751033    -39.235260    28.088375    0.000000    0.000000    0.000000    -69.100685    -37.123886    -51.013020    142.877426    56.715614    -110.616379    -12.560760    -32.150654    -24.145517    0.000000    0.000000    0.000000    
-8.783414    88.029572    -73.317566    -1.881575    -3.744641    47.976791    3.649559    13.905241    -4.959463    -3.539762    -3.703789    -1.610062    3.796237    6.407103    -19.356773    13.804955    -13.611723    -17.004774    1.007635    7.938128    -18.227152    -33.033710    18.135075    -38.143215    -6.219232    -26.920956    -119.562332    -13.563359    -34.658546    -14.229299    5.269137    6.931364    -4.821240    28.172651    10.748112    39.127712    -11.085548    4.288657    43.441002    -18.925253    2.562570    35.726742    59.554314    -44.955353    5.840531    -162.653183    51.457779    98.803299    4.671532    -39.204643    27.971903    0.000000    0.000000    0.000000    -69.046417    -37.056049    -51.018932    142.913239    56.709198    -110.606789    -12.603117    -32.167660    -24.185280    0.000000    0.000000    0.000000    
-8.793193    88.042488    -73.269096    -1.889259    -3.774307    48.013992    3.626817    13.881299    -4.969716    -3.523900    -3.657822    -1.612709    3.780299    6.434017    -19.385527    13.828942    -13.643081    -17.022779    0.993604    7.924123    -18.249794    -33.023853    18.100594    -38.082321    -6.255561    -26.855968    -119.560669    -13.450937    -34.667870    -14.169148    5.280160    6.924189    -4.829119    28.180702    10.779583    39.107624    -11.080123    4.274426    43.460598    -18.893389    2.568089    35.677040    59.612453    -44.957291    5.773914    -162.561279    51.480160    98.740646    4.577578    -39.168030    27.833860    0.000000    0.000000    0.000000    -68.982170    -36.997559    -51.019562    142.941666    56.714012    -110.603668    -12.627879    -32.181522    -24.205051    0.000000    0.000000    0.000000    
